<?xml version="1.0" encoding="UTF-8"?>
<svg version="1.1" xmlns="http://www.w3.org/2000/svg" width="620" height="227">
<path d="M0 0 C204.6 0 409.2 0 620 0 C620 74.91 620 149.82 620 227 C415.4 227 210.8 227 0 227 C0 152.09 0 77.18 0 0 Z " fill="#575756" transform="translate(0,0)"/>
<path d="M0 0 C5.42192693 3.61461795 8.1399216 7.9455131 10.859375 13.78125 C11.354375 14.77125 11.354375 14.77125 11.859375 15.78125 C12.72182548 27.01774763 12.58913215 35.95718301 5.0390625 44.94921875 C3.82418097 46.30388791 2.60187331 47.65194598 1.37109375 48.9921875 C-2.44566149 53.50917433 -2.45420753 58.95536173 -2.796875 64.609375 C-3.140625 66.78125 -3.140625 66.78125 -5.140625 68.78125 C-9.28918962 69.23881227 -13.46974575 69.10527177 -17.640625 69.09375 C-18.80722656 69.10986328 -19.97382813 69.12597656 -21.17578125 69.14257812 C-22.84447266 69.14354492 -22.84447266 69.14354492 -24.546875 69.14453125 C-25.57103516 69.14751221 -26.59519531 69.15049316 -27.65039062 69.15356445 C-28.47216797 69.03070068 -29.29394531 68.90783691 -30.140625 68.78125 C-32.41285447 65.3729058 -32.32926728 64.08711485 -32.390625 60.09375 C-32.81643902 53.68331345 -34.82284905 50.38180221 -39.140625 45.78125 C-45.67616804 38.47681955 -47.8809412 30.67215899 -47.515625 20.95703125 C-46.30359157 10.69262317 -41.28005386 4.67620004 -33.40625 -1.6015625 C-24.0463069 -7.52400437 -9.12142494 -5.19322004 0 0 Z " fill="#F9CA23" transform="translate(151.140625,56.21875)"/>
<path d="M0 0 C3.21663096 -0.18984961 6.43181507 -0.30456527 9.65234375 -0.40625 C10.55964233 -0.46071289 11.46694092 -0.51517578 12.4017334 -0.57128906 C19.04043619 -0.72852548 19.04043619 -0.72852548 21.84169865 1.39826488 C24.27679742 4.21418662 26.21021253 7.2646196 27.77734375 10.64453125 C29.9995928 15.1363541 32.72344203 19.11200669 35.625 23.1875 C36.55204039 24.52557291 37.47657138 25.86538828 38.3984375 27.20703125 C38.83897461 27.84721191 39.27951172 28.48739258 39.73339844 29.14697266 C41.59707582 31.87351686 43.42453445 34.62270542 45.25 37.375 C48.10647511 41.67990996 51.02979245 45.92814054 54.00390625 50.15234375 C56.60321581 53.86055641 59.17926028 57.58444221 61.75 61.3125 C62.22219971 61.99473633 62.69439941 62.67697266 63.1809082 63.37988281 C63.63167725 64.0344043 64.08244629 64.68892578 64.546875 65.36328125 C64.94745117 65.94376221 65.34802734 66.52424316 65.76074219 67.12231445 C67 69 67 69 68.27954102 71.68310547 C69.81130047 74.26241704 69.81130047 74.26241704 72.72729492 74.65942383 C73.80084229 74.67513428 74.87438965 74.69084473 75.98046875 74.70703125 C77.72553711 74.75053711 77.72553711 74.75053711 79.50585938 74.79492188 C80.72080078 74.80072266 81.93574219 74.80652344 83.1875 74.8125 C84.41404297 74.83763672 85.64058594 74.86277344 86.90429688 74.88867188 C89.9365198 74.94766454 92.96729509 74.98385681 96 75 C96 76.32 96 77.64 96 79 C72.41799037 81.8494218 72.41799037 81.8494218 65.51074219 77.39453125 C61.43269208 73.25137439 58.7087498 68.34625608 56.11669922 63.17871094 C54.74217483 60.49697599 53.06487061 58.15096468 51.25 55.75 C48.19974407 51.36995269 45.33637126 46.87364808 42.46899414 42.37304688 C39.26217807 37.35872812 35.89139642 32.47167842 32.48046875 27.59375 C28.86788656 22.39570385 25.38956345 17.1063637 21.8972168 11.82714844 C21.15918823 10.71388184 21.15918823 10.71388184 20.40625 9.578125 C19.96603516 8.91200195 19.52582031 8.24587891 19.07226562 7.55957031 C18.0895102 6.02882249 18.0895102 6.02882249 17 5 C12.71 4.67 8.42 4.34 4 4 C4 33.04 4 62.08 4 92 C5.65 92 7.3 92 9 92 C9 67.58 9 43.16 9 18 C10.32 18 11.64 18 13 18 C13 42.09 13 66.18 13 91 C14.65 91 16.3 91 18 91 C18 70.87 18 50.74 18 30 C19.32 30.33 20.64 30.66 22 31 C22 50.8 22 70.6 22 91 C23.32 91 24.64 91 26 91 C26 74.83 26 58.66 26 42 C29.97780136 43.32593379 31.34097761 45.87251062 33.625 49.1875 C34.06303955 49.81172852 34.5010791 50.43595703 34.95239258 51.07910156 C38.36457439 55.98084969 41.61366424 60.9810877 44.81274414 66.02368164 C47.51141021 70.27298891 50.3407707 74.4038571 53.25390625 78.5078125 C55.21628575 81.30870314 57.1105182 84.1494574 59 87 C62.09359811 91.66437854 65.26268546 96.26602141 68.48828125 100.83984375 C69.66461815 102.52075927 70.80787528 104.22484316 71.9375 105.9375 C74.62403896 109.92660331 77.50863611 113.759711 80.390625 117.609375 C82 120 82 120 82 122 C83.65 122 85.3 122 87 122 C87 111.44 87 100.88 87 90 C84.03 90 81.06 90 78 90 C74.9375 87.625 74.9375 87.625 73 85 C73 84.34 73 83.68 73 83 C79.27 83 85.54 83 92 83 C92 97.52 92 112.04 92 127 C80 127 80 127 77.53515625 125.04296875 C77.04917969 124.10066406 76.56320313 123.15835938 76.0625 122.1875 C75.44117187 121.09308594 74.81984375 119.99867188 74.1796875 118.87109375 C73.84291992 118.2560498 73.50615234 117.64100586 73.15917969 117.00732422 C70.90406429 113.10219389 68.26059517 109.44975605 65.6875 105.75 C64.55372589 104.09701332 63.42091243 102.44336732 62.2890625 100.7890625 C60.26763159 97.84314664 58.24214924 94.90011699 56.2109375 91.9609375 C50.89364355 84.2635215 45.64066023 76.52511263 40.4375 68.75 C39.82914307 67.8439502 39.22078613 66.93790039 38.59399414 66.00439453 C38.02543701 65.15216309 37.45687988 64.29993164 36.87109375 63.421875 C36.36505615 62.66487305 35.85901855 61.90787109 35.33764648 61.12792969 C34.08381266 59.13332928 33.01199258 57.1257565 32 55 C31.34 55 30.68 55 30 55 C30.02094727 56.31605225 30.04189453 57.63210449 30.06347656 58.98803711 C30.136249 63.90247583 30.18193478 68.81686756 30.21972656 73.73168945 C30.23975746 75.85286487 30.26699025 77.97398565 30.30175781 80.0949707 C30.35065214 83.15589941 30.37305452 86.21609376 30.390625 89.27734375 C30.41127014 90.21521225 30.43191528 91.15308075 30.45318604 92.11936951 C30.45621072 101.13217223 27.1214508 107.51788944 22.3046875 114.9375 C20.03354521 118.52780876 18.02941374 122.26933304 16 126 C13 125 13 125 11.38671875 122.26171875 C10.54560547 120.49248047 10.54560547 120.49248047 9.6875 118.6875 C9.13449219 117.53636719 8.58148438 116.38523437 8.01171875 115.19921875 C7.70893509 114.53413803 7.40615143 113.86905731 7.0941925 113.18382263 C6.02549421 110.93891263 6.02549421 110.93891263 4.51164246 108.76747131 C-1.78612733 98.52596386 -0.76081248 87.81376487 -0.5859375 76.171875 C-0.57472905 73.96943321 -0.56619667 71.76697633 -0.56021118 69.56451416 C-0.53744293 63.80370853 -0.47862366 58.04382914 -0.4119873 52.28338623 C-0.3503048 46.39087448 -0.32314092 40.49821118 -0.29296875 34.60546875 C-0.2288684 23.06990842 -0.12663552 11.53503162 0 0 Z " fill="#E9E9E8" transform="translate(51,54)"/>
<path d="M0 0 C5.42192693 3.61461795 8.1399216 7.9455131 10.859375 13.78125 C11.354375 14.77125 11.354375 14.77125 11.859375 15.78125 C12.72182548 27.01774763 12.58913215 35.95718301 5.0390625 44.94921875 C3.82418097 46.30388791 2.60187331 47.65194598 1.37109375 48.9921875 C-2.44566149 53.50917433 -2.45420753 58.95536173 -2.796875 64.609375 C-3.140625 66.78125 -3.140625 66.78125 -5.140625 68.78125 C-9.28918962 69.23881227 -13.46974575 69.10527177 -17.640625 69.09375 C-18.80722656 69.10986328 -19.97382813 69.12597656 -21.17578125 69.14257812 C-22.84447266 69.14354492 -22.84447266 69.14354492 -24.546875 69.14453125 C-25.57103516 69.14751221 -26.59519531 69.15049316 -27.65039062 69.15356445 C-28.47216797 69.03070068 -29.29394531 68.90783691 -30.140625 68.78125 C-32.41285447 65.3729058 -32.32926728 64.08711485 -32.390625 60.09375 C-32.81643902 53.68331345 -34.82284905 50.38180221 -39.140625 45.78125 C-45.67616804 38.47681955 -47.8809412 30.67215899 -47.515625 20.95703125 C-46.30359157 10.69262317 -41.28005386 4.67620004 -33.40625 -1.6015625 C-24.0463069 -7.52400437 -9.12142494 -5.19322004 0 0 Z M-36.953125 7.65625 C-42.77868371 14.91824785 -44.04276992 20.5159778 -43.140625 29.78125 C-41.64365706 36.28980626 -38.28635101 41.6866127 -33.515625 46.34375 C-28.61736248 51.37091417 -28.63543252 57.07530595 -28.140625 63.78125 C-26.820625 63.78125 -25.500625 63.78125 -24.140625 63.78125 C-24.140625 54.21125 -24.140625 44.64125 -24.140625 34.78125 C-25.460625 34.78125 -26.780625 34.78125 -28.140625 34.78125 C-28.140625 34.12125 -28.140625 33.46125 -28.140625 32.78125 C-26.820625 32.78125 -25.500625 32.78125 -24.140625 32.78125 C-24.635625 30.30625 -24.635625 30.30625 -25.140625 27.78125 C-26.790625 27.45125 -28.440625 27.12125 -30.140625 26.78125 C-30.140625 28.43125 -30.140625 30.08125 -30.140625 31.78125 C-31.130625 31.45125 -32.120625 31.12125 -33.140625 30.78125 C-33.18316856 28.78170254 -33.18143283 26.78083364 -33.140625 24.78125 C-32.140625 23.78125 -32.140625 23.78125 -29.328125 23.46875 C-26.140625 23.78125 -26.140625 23.78125 -23.890625 25.53125 C-22.30916573 27.56455477 -21.15233954 29.42058273 -20.140625 31.78125 C-18.490625 31.78125 -16.840625 31.78125 -15.140625 31.78125 C-14.150625 28.31625 -14.150625 28.31625 -13.140625 24.78125 C-11.68326413 24.58633548 -10.22467907 24.40055642 -8.765625 24.21875 C-7.95351562 24.11433594 -7.14140625 24.00992188 -6.3046875 23.90234375 C-4.140625 23.78125 -4.140625 23.78125 -2.140625 24.78125 C-2.140625 27.42125 -2.140625 30.06125 -2.140625 32.78125 C-5.110625 34.10125 -8.080625 35.42125 -11.140625 36.78125 C-11.140625 45.69125 -11.140625 54.60125 -11.140625 63.78125 C-9.820625 63.78125 -8.500625 63.78125 -7.140625 63.78125 C-6.9859375 61.8321875 -6.9859375 61.8321875 -6.828125 59.84375 C-6.28537421 55.02014792 -5.40647081 50.11927959 -3.140625 45.78125 C-2.150625 45.45125 -1.160625 45.12125 -0.140625 44.78125 C2.1893787 41.56407646 2.1893787 41.56407646 2.859375 37.78125 C3.519375 37.78125 4.179375 37.78125 4.859375 37.78125 C8.17236336 30.60310855 9.41628316 23.23969588 7.203125 15.48046875 C4.17657659 8.76205311 -1.49564864 2.9366857 -8.140625 -0.21875 C-11.01067092 -0.53574015 -13.59109491 -0.69628714 -16.453125 -0.65625 C-17.59370361 -0.64271484 -17.59370361 -0.64271484 -18.75732422 -0.62890625 C-26.92047954 -0.37605739 -31.38192424 1.6600298 -36.953125 7.65625 Z " fill="#F7F4E0" transform="translate(151.140625,56.21875)"/>
<path d="M0 0 C0.33 0 0.66 0 1 0 C1 19.8 1 39.6 1 60 C2.32 60 3.64 60 5 60 C5 43.83 5 27.66 5 11 C8.97780136 12.32593379 10.34097761 14.87251062 12.625 18.1875 C13.06303955 18.81172852 13.5010791 19.43595703 13.95239258 20.07910156 C17.36457439 24.98084969 20.61366424 29.9810877 23.81274414 35.02368164 C26.51141021 39.27298891 29.3407707 43.4038571 32.25390625 47.5078125 C34.21628575 50.30870314 36.1105182 53.1494574 38 56 C41.09359811 60.66437854 44.26268546 65.26602141 47.48828125 69.83984375 C48.66461815 71.52075927 49.80787528 73.22484316 50.9375 74.9375 C53.62403896 78.92660331 56.50863611 82.759711 59.390625 86.609375 C61 89 61 89 61 91 C62.65 91 64.3 91 66 91 C66 80.44 66 69.88 66 59 C63.03 59 60.06 59 57 59 C53.9375 56.625 53.9375 56.625 52 54 C52 53.34 52 52.68 52 52 C58.27 52 64.54 52 71 52 C71 66.52 71 81.04 71 96 C59 96 59 96 56.53515625 94.04296875 C56.04917969 93.10066406 55.56320313 92.15835938 55.0625 91.1875 C54.44117187 90.09308594 53.81984375 88.99867188 53.1796875 87.87109375 C52.84291992 87.2560498 52.50615234 86.64100586 52.15917969 86.00732422 C49.90406429 82.10219389 47.26059517 78.44975605 44.6875 74.75 C43.55372589 73.09701332 42.42091243 71.44336732 41.2890625 69.7890625 C39.26763159 66.84314664 37.24214924 63.90011699 35.2109375 60.9609375 C29.89364355 53.2635215 24.64066023 45.52511263 19.4375 37.75 C18.82914307 36.8439502 18.22078613 35.93790039 17.59399414 35.00439453 C17.02543701 34.15216309 16.45687988 33.29993164 15.87109375 32.421875 C15.11203735 31.28637207 15.11203735 31.28637207 14.33764648 30.12792969 C13.08381266 28.13332928 12.01199258 26.1257565 11 24 C10.34 24 9.68 24 9 24 C9.02094727 25.31605225 9.04189453 26.63210449 9.06347656 27.98803711 C9.136249 32.90247583 9.18193478 37.81686756 9.21972656 42.73168945 C9.23975746 44.85286487 9.26699025 46.97398565 9.30175781 49.0949707 C9.35065214 52.15589941 9.37305452 55.21609376 9.390625 58.27734375 C9.41127014 59.21521225 9.43191528 60.15308075 9.45318604 61.11936951 C9.45621072 70.13217223 6.1214508 76.51788944 1.3046875 83.9375 C-0.96645479 87.52780876 -2.97058626 91.26933304 -5 95 C-8.62791065 93.79069645 -9.0946994 92.43489995 -10.75195312 89.13085938 C-11.06068359 88.48955078 -11.36941406 87.84824219 -11.6875 87.1875 C-12.00783203 86.55779297 -12.32816406 85.92808594 -12.65820312 85.27929688 C-14.3380728 81.86583036 -15 79.87806037 -15 76 C-14.01 76 -13.02 76 -12 76 C-12.66 74.9275 -13.32 73.855 -14 72.75 C-15.88295807 69.69019314 -16 68.8664136 -16 65 C-14.88625 65.20625 -13.7725 65.4125 -12.625 65.625 C-10.830625 65.810625 -10.830625 65.810625 -9 66 C-8.01 65.01 -8.01 65.01 -7 64 C-5.125 64.375 -5.125 64.375 -3 65 C-1.68 65 -0.36 65 1 65 C1.33 64.01 1.66 63.02 2 62 C1.34 62 0.68 62 0 62 C0 41.54 0 21.08 0 0 Z " fill="#E7E7E7" transform="translate(72,85)"/>
<path d="M0 0 C4.28110162 2.01415638 7.54632288 4.63533069 10.61328125 8.27734375 C10.61328125 8.93734375 10.61328125 9.59734375 10.61328125 10.27734375 C11.27328125 10.27734375 11.93328125 10.27734375 12.61328125 10.27734375 C14.95193458 14.9546504 14.33443501 21.75124514 12.9296875 26.671875 C10.72528063 31.45571232 7.83562534 34.19855119 3.61328125 37.27734375 C3.02160156 37.80972656 2.42992187 38.34210938 1.8203125 38.890625 C-3.0429398 41.9462968 -10.11174466 40.87173407 -15.58203125 39.87890625 C-20.70333157 38.11056488 -23.76479707 33.80087896 -26.38671875 29.27734375 C-26.38671875 28.61734375 -26.38671875 27.95734375 -26.38671875 27.27734375 C-27.04671875 27.27734375 -27.70671875 27.27734375 -28.38671875 27.27734375 C-28.49555471 24.90109198 -28.57438571 22.52990399 -28.63671875 20.15234375 C-28.67023438 19.4871875 -28.70375 18.82203125 -28.73828125 18.13671875 C-28.83936879 12.98125412 -27.60016383 10.24213391 -24.38671875 6.27734375 C-17.56635709 -0.74762876 -9.5058945 -2.87821683 0 0 Z " fill="#F0F0EF" transform="translate(454.38671875,106.72265625)"/>
<path d="M0 0 C5.17290857 2.96184079 8.59232569 6.42862576 10.6875 12.0625 C11.56829544 18.7485381 11.23868901 24.7798566 8.6875 31.0625 C6.625 32.625 6.625 32.625 3.6875 34.0625 C3.0584375 34.48789063 2.429375 34.91328125 1.78125 35.3515625 C-4.4295231 39.37956389 -10.00118117 40.27773283 -17.3125 39.0625 C-23.81539329 36.72317535 -27.3523587 32.13523623 -30.3125 26.0625 C-32.16068163 20.51795511 -32.7235077 13.95805327 -30.11328125 8.6015625 C-22.64326132 -1.52153756 -11.84885596 -5.19058645 0 0 Z " fill="#F2F2F1" transform="translate(281.3125,107.9375)"/>
<path d="M0 0 C9 0 9 0 11.20703125 1.625 C11.73683594 2.40875 12.26664063 3.1925 12.8125 4 C13.78123047 5.36125 13.78123047 5.36125 14.76953125 6.75 C15.50558594 7.8225 16.24164063 8.895 17 10 C18.46319988 11.98455813 19.94593362 13.95344777 21.43139648 15.92138672 C22.47563736 17.30514809 23.5155365 18.69219681 24.55102539 20.08251953 C28.13343887 24.89228906 31.8304358 29.57308358 35.671875 34.1796875 C37 36 37 36 37 38 C37.66 38 38.32 38 39 38 C39 25.79 39 13.58 39 1 C41.64 1 44.28 1 47 1 C47 18.16 47 35.32 47 53 C40 53 40 53 37.30859375 50.79296875 C36.54675781 49.87128906 35.78492188 48.94960937 35 48 C34.35160156 47.25363281 33.70320313 46.50726563 33.03515625 45.73828125 C28.12991489 39.70629138 23.29992948 33.61604902 18.5 27.5 C17.56426147 26.31531128 17.56426147 26.31531128 16.60961914 25.10668945 C16.02688232 24.35991943 15.44414551 23.61314941 14.84375 22.84375 C14.31974609 22.17537109 13.79574219 21.50699219 13.25585938 20.81835938 C12 19 12 19 11 16 C10.34 16 9.68 16 9 16 C9 28.21 9 40.42 9 53 C6.03 53 3.06 53 0 53 C0 35.51 0 18.02 0 0 Z " fill="#F3F3F2" transform="translate(193,93)"/>
<path d="M0 0 C3.79731324 2.60894543 5.5870264 5.59142957 6.921875 9.9296875 C7.23148689 13.10320939 7.171875 16.30359836 7.171875 19.4921875 C-3.058125 19.4921875 -13.288125 19.4921875 -23.828125 19.4921875 C-21.56994533 26.05830491 -21.56994533 26.05830491 -16.828125 29.4921875 C-10.90852602 30.06505192 -8.13505549 29.20461864 -2.828125 26.4921875 C-0.078125 26.6171875 -0.078125 26.6171875 2.171875 27.4921875 C2.831875 28.4821875 3.491875 29.4721875 4.171875 30.4921875 C-3.64498134 36.96901133 -8.66261008 38.42680033 -18.828125 37.4921875 C-23.71976713 35.86164012 -25.7970662 33.56843899 -28.828125 29.4921875 C-29.818125 28.8321875 -30.808125 28.1721875 -31.828125 27.4921875 C-33.01625973 23.92778332 -33.07000453 20.93743968 -33.140625 17.1796875 C-33.17800781 15.88417969 -33.21539062 14.58867188 -33.25390625 13.25390625 C-32.60964411 7.56193889 -30.00296904 4.61595136 -25.953125 0.7421875 C-17.45755011 -5.37462642 -8.9176954 -4.901963 0 0 Z " fill="#F2F2F1" transform="translate(360.828125,109.5078125)"/>
<path d="M0 0 C2.97 0 5.94 0 9 0 C9.00410889 0.86278564 9.00821777 1.72557129 9.01245117 2.61450195 C9.03943555 5.81873532 9.08852168 9.021652 9.15258789 12.2253418 C9.17577078 13.61128963 9.19016441 14.9974137 9.19555664 16.38354492 C9.20484197 18.3770332 9.24845978 20.37026828 9.29296875 22.36328125 C9.31653442 24.16212769 9.31653442 24.16212769 9.34057617 25.99731445 C9.71065061 29.16383628 9.71065061 29.16383628 12.3215332 30.89916992 C16.39957258 32.575214 20.0011896 32.16206571 24.3125 31.8125 C26.22395388 31.10443819 26.22395388 31.10443819 27.07958984 28.83520508 C28.09316576 25.71301485 28.31717826 23.10213552 28.4140625 19.82421875 C28.45273437 18.66728516 28.49140625 17.51035156 28.53125 16.31835938 C28.5621875 15.12017578 28.593125 13.92199219 28.625 12.6875 C28.66367187 11.46998047 28.70234375 10.25246094 28.7421875 8.99804688 C28.83628002 5.99884772 28.92192209 2.99965177 29 0 C31.97 0 34.94 0 38 0 C38 13.53 38 27.06 38 41 C35.03 41 32.06 41 29 41 C28.67 40.34 28.34 39.68 28 39 C24.39007621 39.65585189 24.39007621 39.65585189 21 41 C10.52854652 42.08272045 10.52854652 42.08272045 6 38.875 C5.34 37.92625 4.68 36.9775 4 36 C3.30680664 35.09813965 2.61361328 34.1962793 1.89941406 33.26708984 C-0.32723316 29.43714214 -0.46576554 27.24728437 -0.390625 22.8515625 C-0.38496521 22.19417084 -0.37930542 21.53677917 -0.37347412 20.85946655 C-0.35126275 18.78053809 -0.3011042 16.70339837 -0.25 14.625 C-0.22991489 13.20705632 -0.21166765 11.78908535 -0.1953125 10.37109375 C-0.15145067 6.91349123 -0.08253437 3.45692049 0 0 Z " fill="#F1F1F0" transform="translate(476,106)"/>
<path d="M0 0 C1.29550781 -0.03738281 2.59101562 -0.07476562 3.92578125 -0.11328125 C8.44330084 0.39804755 10.17780937 1.55371992 13.6875 4.3125 C12.6975 5.9625 11.7075 7.6125 10.6875 9.3125 C9.99269531 9.14878906 9.29789063 8.98507813 8.58203125 8.81640625 C5.4522184 8.27154004 2.54951917 8.21511517 -0.625 8.25 C-1.69363281 8.25902344 -2.76226563 8.26804687 -3.86328125 8.27734375 C-4.67152344 8.28894531 -5.47976563 8.30054687 -6.3125 8.3125 C-6.6425 9.9625 -6.9725 11.6125 -7.3125 13.3125 C-3.15394348 16.99200711 1.269318 17.40023975 6.59375 18.37109375 C10.03539381 19.41836163 11.43584111 20.55634206 13.6875 23.3125 C15.26205739 26.46161479 15.03549118 28.83258816 14.6875 32.3125 C13.25605892 34.76410991 11.75508347 36.29414471 9.6875 38.3125 C9.0275 38.3125 8.3675 38.3125 7.6875 38.3125 C7.3575 39.3025 7.0275 40.2925 6.6875 41.3125 C4.27075776 41.33955308 1.8543206 41.35936438 -0.5625 41.375 C-1.24441406 41.38337891 -1.92632813 41.39175781 -2.62890625 41.40039062 C-6.00592554 41.41678392 -9.08541639 41.36878768 -12.3125 40.3125 C-12.3125 39.6525 -12.3125 38.9925 -12.3125 38.3125 C-13.9625 37.6525 -15.6125 36.9925 -17.3125 36.3125 C-16.9825 34.6625 -16.6525 33.0125 -16.3125 31.3125 C-14.625 30.625 -14.625 30.625 -12.3125 30.3125 C-11.631875 30.786875 -10.95125 31.26125 -10.25 31.75 C-5.76248134 34.13697801 -1.29765387 33.54822531 3.6875 33.3125 C4.3475 31.3325 5.0075 29.3525 5.6875 27.3125 C5.0275 27.3125 4.3675 27.3125 3.6875 27.3125 C3.3575 26.6525 3.0275 25.9925 2.6875 25.3125 C-0.80957139 24.23578203 -4.34230097 23.3839066 -7.89453125 22.5078125 C-12.07297423 21.0465513 -14.3326015 19.272297 -16.3125 15.3125 C-16.44612091 10.45442537 -15.99230781 7.1712046 -12.9375 3.3125 C-8.69224095 0.07801692 -5.22158689 0.09813071 0 0 Z " fill="#EFEFEE" transform="translate(540.3125,105.6875)"/>
<path d="M0 0 C3.74280724 3.50724594 6.56652475 7.1191791 9.25 11.5 C12.29122785 16.34938656 15.40683423 21.12146105 18.6875 25.8125 C21.18854094 29.39097899 23.66475938 32.97654603 26.0625 36.625 C29.02157763 41.11779674 32.23086402 45.41412794 35.4609375 49.71484375 C37 52 37 52 37 54 C38.65 54 40.3 54 42 54 C42 43.44 42 32.88 42 22 C39.03 22 36.06 22 33 22 C29.9375 19.625 29.9375 19.625 28 17 C28 16.34 28 15.68 28 15 C34.27 15 40.54 15 47 15 C47 29.52 47 44.04 47 59 C35 59 35 59 32.53515625 57.04296875 C32.04917969 56.10066406 31.56320313 55.15835938 31.0625 54.1875 C30.44117188 53.09308594 29.81984375 51.99867188 29.1796875 50.87109375 C28.84291992 50.2560498 28.50615234 49.64100586 28.15917969 49.00732422 C25.90406924 45.10220246 23.26067809 41.44968979 20.6875 37.75 C19.5641169 36.1126561 18.44172239 34.47463348 17.3203125 32.8359375 C14.70751491 29.02845759 12.0900321 25.22422316 9.47119141 21.42089844 C9.00632324 20.74575195 8.54145508 20.07060547 8.0625 19.375 C7.38646729 18.39321777 7.38646729 18.39321777 6.69677734 17.39160156 C3.41872059 12.62463304 0.18124353 7.83226866 -3 3 C-2.01 2.01 -1.02 1.02 0 0 Z " fill="#D5D5D5" transform="translate(96,122)"/>
<path d="M0 0 C2.64 0 5.28 0 8 0 C8 3.63 8 7.26 8 11 C11.63 11 15.26 11 19 11 C19 12.98 19 14.96 19 17 C15.37 17 11.74 17 8 17 C8.14010035 20.97944615 8.28679559 24.95845381 8.4375 28.9375 C8.47681641 30.07380859 8.51613281 31.21011719 8.55664062 32.38085938 C8.61948242 34.00024414 8.61948242 34.00024414 8.68359375 35.65234375 C8.73858032 37.15269165 8.73858032 37.15269165 8.79467773 38.68334961 C8.74671841 40.96069188 8.74671841 40.96069188 10 42 C11.49929044 42.04613201 13.00048046 42.03796252 14.5 42 C15.99951954 41.96203748 17.50070956 41.95386799 19 42 C20 43 20 43 20.25 45.9375 C20.12625 47.4534375 20.12625 47.4534375 20 49 C15.56261278 51.95825815 11.20627037 51.65468071 6 51 C3.3125 49.125 3.3125 49.125 2 47 C2 46.34 2 45.68 2 45 C1.34 45 0.68 45 0 45 C0 35.76 0 26.52 0 17 C-1.98 17 -3.96 17 -6 17 C-6 15.35 -6 13.7 -6 12 C-4.02 12 -2.04 12 0 12 C0 8.04 0 4.08 0 0 Z " fill="#F3F3F3" transform="translate(303,96)"/>
<path d="M0 0 C3.4130495 2.02938079 4.6029206 3.76588794 6.3125 7.375 C7.03023385 11.84754519 7.41800555 16.27821087 5.25390625 20.3828125 C3.50915655 22.5262142 1.79252177 24.13498912 -0.6875 25.375 C-5.53094285 25.78417101 -10.46864142 26.02685396 -14.6875 23.375 C-17.55038136 20.12524279 -18.94075503 17.60603924 -19.0625 13.3125 C-18.50382061 7.44636643 -17.21752248 4.21865544 -12.6875 0.375 C-8.34721287 -1.07176238 -4.45225579 -1.03540832 0 0 Z " fill="#5C5C5C" transform="translate(452.6875,113.625)"/>
<path d="M0 0 C0 0.66 0 1.32 0 2 C0.928125 2.1546875 0.928125 2.1546875 1.875 2.3125 C4 3 4 3 6 6 C6.64110173 10.67666844 7.11890087 15.77883619 4.94921875 20.0859375 C2.67289273 22.83901617 0.62410609 24.83407953 -2.98828125 25.203125 C-7.82446163 25.30066141 -11.16869438 25.28397624 -15 22 C-18.37858037 18.07354173 -19.66876201 15.04353555 -19.38671875 9.95703125 C-18.5227502 5.58482678 -16.05612023 2.8563137 -12.6875 0.125 C-8.30077062 -1.71130532 -4.46186512 -1.48728837 0 0 Z " fill="#5C5D5D" transform="translate(277,114)"/>
<path d="M0 0 C4.24050082 0.58202952 5.56223461 2.13716637 8.1875 5.4375 C9 7.75 9 7.75 9.1875 9.4375 C10.8375 9.4375 12.4875 9.4375 14.1875 9.4375 C14.27 8.695 14.3525 7.9525 14.4375 7.1875 C15.36280012 3.7947329 16.35258061 2.50622496 19.1875 0.4375 C23.29527749 -0.06549316 24.69625983 0.11000655 28.1875 2.4375 C28.52154948 5.44394532 28.71611353 7.53903478 28.1875 10.4375 C25.22807609 13.96604389 23.01022277 13.63371287 18.1875 14.4375 C18.1875 23.3475 18.1875 32.2575 18.1875 41.4375 C13.7325 41.9325 13.7325 41.9325 9.1875 42.4375 C7.38470809 40.63470809 8.05713395 37.89702299 8.0546875 35.46875 C8.05339844 34.25832031 8.05210937 33.04789063 8.05078125 31.80078125 C8.05464844 30.52589844 8.05851563 29.25101563 8.0625 27.9375 C8.05863281 26.66261719 8.05476562 25.38773438 8.05078125 24.07421875 C8.05207031 22.86378906 8.05335938 21.65335938 8.0546875 20.40625 C8.05581543 19.28669922 8.05694336 18.16714844 8.05810547 17.01367188 C8.1875 14.4375 8.1875 14.4375 9.1875 13.4375 C11.53737262 13.20222227 13.89306039 13.02363583 16.25 12.875 C18.18552734 12.74931641 18.18552734 12.74931641 20.16015625 12.62109375 C21.15917969 12.56050781 22.15820312 12.49992187 23.1875 12.4375 C22.8575 11.7775 22.5275 11.1175 22.1875 10.4375 C20.18795254 10.39495644 18.18708364 10.39669217 16.1875 10.4375 C15.8575 10.7675 15.5275 11.0975 15.1875 11.4375 C12.85452567 11.47842937 10.52044775 11.47991723 8.1875 11.4375 C7.8575 10.7775 7.5275 10.1175 7.1875 9.4375 C6.1975 9.9325 6.1975 9.9325 5.1875 10.4375 C4.94 9.633125 4.6925 8.82875 4.4375 8 C3.46511141 5.266419 3.46511141 5.266419 1.0625 4.625 C0.134375 4.5321875 0.134375 4.5321875 -0.8125 4.4375 C-0.4825 6.4175 -0.1525 8.3975 0.1875 10.4375 C-2.2875 9.4475 -2.2875 9.4475 -4.8125 8.4375 C-4.9375 5.5625 -4.9375 5.5625 -4.8125 2.4375 C-2.8125 0.4375 -2.8125 0.4375 0 0 Z " fill="#FDF4CA" transform="translate(121.8125,78.5625)"/>
<path d="M0 0 C2.97 0 5.94 0 9 0 C9.33 1.65 9.66 3.3 10 5 C10.66 4.360625 11.32 3.72125 12 3.0625 C15.85690912 0.41087498 18.37840033 0.31332879 23 0 C23 2.64 23 5.28 23 8 C19.37 8.66 15.74 9.32 12 10 C10.2417626 16.91144538 9.60106765 23.44607892 9.375 30.5625 C9.31699219 32.07553711 9.31699219 32.07553711 9.2578125 33.61914062 C9.16454162 36.07915999 9.08123107 38.53955365 9 41 C6.03 41 3.06 41 0 41 C0 27.47 0 13.94 0 0 Z " fill="#ECECEB" transform="translate(377,106)"/>
<path d="M0 0 C2.97 0 5.94 0 9 0 C9 13.53 9 27.06 9 41 C6.03 41 3.06 41 0 41 C0 27.47 0 13.94 0 0 Z " fill="#E9E9E9" transform="translate(408,106)"/>
<path d="M0 0 C3.74280724 3.50724594 6.56652475 7.1191791 9.25 11.5 C12.29122639 16.34938423 15.40678884 21.12149374 18.6875 25.8125 C21.23190107 29.45240708 23.74757673 33.10178335 26.1875 36.8125 C28.95852462 41.00396582 31.93921619 45.01663952 35 49 C34.505 49.99 34.505 49.99 34 51 C33.01 50.67 32.02 50.34 31 50 C30.505 50.99 30.505 50.99 30 52 C29.58532471 51.33645508 29.17064941 50.67291016 28.7434082 49.98925781 C24.40767979 43.10661313 19.86604989 36.40309308 15.1875 29.75 C9.00269377 20.91138357 2.92452031 12.01495518 -3 3 C-2.01 2.01 -1.02 1.02 0 0 Z " fill="#E6E5E5" transform="translate(96,122)"/>
<path d="M0 0 C2.89628735 1.54571364 5.19170487 3.23965544 7 6 C7 7.65 7 9.3 7 11 C-0.92 11 -8.84 11 -17 11 C-15 4 -15 4 -13 1.5625 C-8.61946281 -0.71902978 -4.83078351 -0.99766181 0 0 Z " fill="#696969" transform="translate(353,113)"/>
<path d="M0 0 C1.875 0.375 1.875 0.375 4 1 C7.11257569 1 9.10765685 0.82638376 12 0 C11.45734262 5.42657378 9.53634391 9.25458237 7 14 C3.37 14 -0.26 14 -4 14 C-9 5.5 -9 5.5 -9 1 C-7.88625 1.20625 -6.7725 1.4125 -5.625 1.625 C-3.830625 1.810625 -3.830625 1.810625 -2 2 C-1.34 1.34 -0.68 0.68 0 0 Z " fill="#5F5F5F" transform="translate(65,149)"/>
<path d="M0 0 C1 2 1 2 0.5625 4.125 C-0.68459987 10.499066 -0.21649668 15.96620348 2 22 C2.66 22.33 3.32 22.66 4 23 C4.226875 23.721875 4.45375 24.44375 4.6875 25.1875 C6.31639928 28.67799846 8.45651957 30.31605181 11.44140625 32.66796875 C13 34 13 34 14 36 C14.33 32.04 14.66 28.08 15 24 C13.68 23.34 12.36 22.68 11 22 C9.25 19.875 9.25 19.875 8 18 C8.99 18 9.98 18 11 18 C11 16.35 11 14.7 11 13 C12.65 13.33 14.3 13.66 16 14 C16.33 15.65 16.66 17.3 17 19 C15.68 19 14.36 19 13 19 C13 19.66 13 20.32 13 21 C14.32 21 15.64 21 17 21 C17 30.57 17 40.14 17 50 C15.68 50 14.36 50 13 50 C12.91363281 49.04738281 12.82726562 48.09476563 12.73828125 47.11328125 C12.59777344 45.85902344 12.45726563 44.60476562 12.3125 43.3125 C12.12107422 41.45044922 12.12107422 41.45044922 11.92578125 39.55078125 C10.83113891 35.35234289 9.26684143 33.77048413 6 31 C0.6733195 26.08306416 -1.73181215 20.1705947 -2.19140625 13.0234375 C-2.3575299 3.91986123 -2.3575299 3.91986123 0 0 Z " fill="#F2CE50" transform="translate(110,70)"/>
<path d="M0 0 C0.66 0.33 1.32 0.66 2 1 C2 1.66 2 2.32 2 3 C6.64586892 2.51515724 6.64586892 2.51515724 11 1 C13.3329866 0.95977609 15.66706666 0.95679753 18 1 C17.67 1.99 17.34 2.98 17 4 C12.38 4.66 7.76 5.32 3 6 C2.96261719 7.92585938 2.92523438 9.85171875 2.88671875 11.8359375 C2.82107962 14.34897849 2.75463159 16.86199844 2.6875 19.375 C2.66494141 20.64601563 2.64238281 21.91703125 2.61914062 23.2265625 C2.58369141 24.43828125 2.54824219 25.65 2.51171875 26.8984375 C2.48553467 28.01911621 2.45935059 29.13979492 2.43237305 30.29443359 C2.28968994 31.18727051 2.14700684 32.08010742 2 33 C-1 35 -1 35 -5 35 C-5 34.34 -5 33.68 -5 33 C-3.68 33 -2.36 33 -1 33 C-1 23.43 -1 13.86 -1 4 C-2.32 4 -3.64 4 -5 4 C-5 3.34 -5 2.68 -5 2 C-3.35 2 -1.7 2 0 2 C0 1.34 0 0.68 0 0 Z " fill="#FCF7DD" transform="translate(128,87)"/>
<path d="M0 0 C4.24050082 0.58202952 5.56223461 2.13716637 8.1875 5.4375 C9 7.75 9 7.75 9.1875 9.4375 C10.8375 9.4375 12.4875 9.4375 14.1875 9.4375 C14.4040625 8.261875 14.4040625 8.261875 14.625 7.0625 C15.1875 4.4375 15.1875 4.4375 16.1875 2.4375 C16.8475 2.4375 17.5075 2.4375 18.1875 2.4375 C18.5175 3.0975 18.8475 3.7575 19.1875 4.4375 C20.8375 4.1075 22.4875 3.7775 24.1875 3.4375 C23.3125 8.1875 23.3125 8.1875 22.1875 10.4375 C21.218125 10.416875 20.24875 10.39625 19.25 10.375 C16.31284105 10.08131501 16.31284105 10.08131501 15.1875 11.4375 C12.85452567 11.47842937 10.52044775 11.47991723 8.1875 11.4375 C7.8575 10.7775 7.5275 10.1175 7.1875 9.4375 C6.1975 9.9325 6.1975 9.9325 5.1875 10.4375 C4.94 9.633125 4.6925 8.82875 4.4375 8 C3.46511141 5.266419 3.46511141 5.266419 1.0625 4.625 C0.134375 4.5321875 0.134375 4.5321875 -0.8125 4.4375 C-0.4825 6.4175 -0.1525 8.3975 0.1875 10.4375 C-2.2875 9.4475 -2.2875 9.4475 -4.8125 8.4375 C-4.9375 5.5625 -4.9375 5.5625 -4.8125 2.4375 C-2.8125 0.4375 -2.8125 0.4375 0 0 Z " fill="#FEF6D2" transform="translate(121.8125,78.5625)"/>
<path d="M0 0 C0.66 0 1.32 0 2 0 C2 20.46 2 40.92 2 62 C2.66 62 3.32 62 4 62 C3.6875 63.9375 3.6875 63.9375 3 66 C1.515 66.495 1.515 66.495 0 67 C-0.90660541 63.16586839 -1.09384905 59.67554236 -1.02172852 55.7409668 C-1.00163223 54.50005783 -0.98153595 53.25914886 -0.96083069 51.9806366 C-0.9336388 50.63682829 -0.90632789 49.29302239 -0.87890625 47.94921875 C-0.85458428 46.56631784 -0.83074178 45.18340842 -0.80735779 43.80049133 C-0.74472332 40.17217264 -0.67559904 36.54400584 -0.60510254 32.91583252 C-0.53423189 29.20893227 -0.46952728 25.5019249 -0.40429688 21.79492188 C-0.27555083 14.52982937 -0.13994549 7.26488632 0 0 Z " fill="#F9F9F9" transform="translate(70,85)"/>
<path d="M0 0 C0.66 0 1.32 0 2 0 C2.09765625 6.15234375 2.09765625 6.15234375 2 8 C0.25454395 9.74545605 -2.16124217 9.1302316 -4.53125 9.1328125 C-5.65144531 9.13410156 -6.77164063 9.13539062 -7.92578125 9.13671875 C-9.10527344 9.13285156 -10.28476563 9.12898438 -11.5 9.125 C-13.26923828 9.13080078 -13.26923828 9.13080078 -15.07421875 9.13671875 C-16.75451172 9.13478516 -16.75451172 9.13478516 -18.46875 9.1328125 C-19.50451172 9.13168457 -20.54027344 9.13055664 -21.60742188 9.12939453 C-24 9 -24 9 -25 8 C-25.04092937 5.66702567 -25.04241723 3.33294775 -25 1 C-24.01 1.33 -23.02 1.66 -22 2 C-22 3.32 -22 4.64 -22 6 C-20.948125 5.690625 -19.89625 5.38125 -18.8125 5.0625 C-12.96910597 3.57796206 -6.99865199 3.34748289 -1 3 C-0.67 2.01 -0.34 1.02 0 0 Z " fill="#F3F2EF" transform="translate(145,116)"/>
<path d="M0 0 C1.65 0 3.3 0 5 0 C5 8.91 5 17.82 5 27 C3.35 26.67 1.7 26.34 0 26 C0 17.42 0 8.84 0 0 Z " fill="#F0CA48" transform="translate(131,93)"/>
<path d="M0 0 C5.94 0 11.88 0 18 0 C17.67 12.54 17.34 25.08 17 38 C16.67 38 16.34 38 16 38 C15.67 27.44 15.34 16.88 15 6 C12.03 6 9.06 6 6 6 C3 4.6875 3 4.6875 1 3 C0.67 2.01 0.34 1.02 0 0 Z " fill="#F4F4F4" transform="translate(124,137)"/>
<path d="M0 0 C0.99 0 1.98 0 3 0 C3 0.66 3 1.32 3 2 C3.763125 2.12375 4.52625 2.2475 5.3125 2.375 C8 3 8 3 11 5 C11.29296875 8.0390625 11.29296875 8.0390625 11.1875 11.625 C11.16042969 12.81351563 11.13335937 14.00203125 11.10546875 15.2265625 C11.07066406 16.14179687 11.03585938 17.05703125 11 18 C10.34 17.67 9.68 17.34 9 17 C9 16.34 9 15.68 9 15 C8.01 14.67 7.02 14.34 6 14 C1.69672038 10.43142665 0.03671887 7.49460999 -1 2 C-0.67 1.34 -0.34 0.68 0 0 Z " fill="#FAC417" transform="translate(114,89)"/>
<path d="M0 0 C-0.99 0.33 -1.98 0.66 -3 1 C-3 4.96 -3 8.92 -3 13 C-2.34 13 -1.68 13 -1 13 C-1 12.34 -1 11.68 -1 11 C-0.34 11.33 0.32 11.66 1 12 C0.690625 12.804375 0.38125 13.60875 0.0625 14.4375 C-1.18565517 18.62249087 -1.6337696 22.66306101 -2 27 C-3.32 27 -4.64 27 -6 27 C-6 18.09 -6 9.18 -6 0 C-3.50907189 -1.24546405 -2.58919267 -0.7767578 0 0 Z " fill="#F1CE4E" transform="translate(146,93)"/>
<path d="M0 0 C1.33359073 6.42548263 1.33359073 6.42548263 -0.125 8.9375 C-2.63647631 10.36066991 -4.15503228 10.42674516 -7 10 C-8.8125 8.8125 -8.8125 8.8125 -10 7 C-10.42674516 4.15503228 -10.36066991 2.63647631 -8.9375 0.125 C-5.88430685 -1.64782183 -3.33588292 -0.69235306 0 0 Z " fill="#E6E6E5" transform="translate(417,90)"/>
<path d="M0 0 C2.97 0 5.94 0 9 0 C9 13.53 9 27.06 9 41 C6.03 41 3.06 41 0 41 C-0.33 40.34 -0.66 39.68 -1 39 C-1.99 38.34 -2.98 37.68 -4 37 C-2.35 36.34 -0.7 35.68 1 35 C1 36.65 1 38.3 1 40 C3.31 40 5.62 40 8 40 C8 27.13 8 14.26 8 1 C5.69 1 3.38 1 1 1 C1 9.25 1 17.5 1 26 C0.67 26 0.34 26 0 26 C0 17.42 0 8.84 0 0 Z " fill="#BDBDBD" transform="translate(505,106)"/>
<path d="M0 0 C4.378948 4.23769161 5.16889516 6.41144442 5.6875 12.5 C5.79449219 13.6653125 5.90148437 14.830625 6.01171875 16.03125 C6 19 6 19 4 21 C2.82226349 19.25743068 1.65816821 17.50563593 0.5 15.75 C-0.1496875 14.77546875 -0.799375 13.8009375 -1.46875 12.796875 C-3 10 -3 10 -3 6 C-1.68 5.34 -0.36 4.68 1 4 C0.67 2.68 0.34 1.36 0 0 Z " fill="#6B6A69" transform="translate(114,104)"/>
<path d="M0 0 C1.64453125 1.046875 1.64453125 1.046875 2.3828125 3.15625 C2.46917969 3.78015625 2.55554688 4.4040625 2.64453125 5.046875 C-3.23046875 4.171875 -3.23046875 4.171875 -4.35546875 3.046875 C-5.76667777 2.82116316 -7.18722918 2.65299151 -8.609375 2.51171875 C-9.89038086 2.38120117 -9.89038086 2.38120117 -11.19726562 2.24804688 C-12.09509766 2.16103516 -12.99292969 2.07402344 -13.91796875 1.984375 C-14.81966797 1.89349609 -15.72136719 1.80261719 -16.65039062 1.70898438 C-18.88505309 1.48433577 -21.12004714 1.26381731 -23.35546875 1.046875 C-20.05390494 -5.55625262 -5.6345082 -1.82740806 0 0 Z " fill="#FAF7E8" transform="translate(147.35546875,53.953125)"/>
<path d="M0 0 C-0.99 0.33 -1.98 0.66 -3 1 C-0.525 1.495 -0.525 1.495 2 2 C-0.00300335 3.00822316 -2.00883322 4.00418773 -4.03515625 4.96484375 C-4.70417969 5.28582031 -5.37320313 5.60679688 -6.0625 5.9375 C-6.73410156 6.25589844 -7.40570313 6.57429688 -8.09765625 6.90234375 C-10.0642245 7.92248937 -10.0642245 7.92248937 -11.546875 9.5859375 C-13.73352668 11.71380822 -16.05182374 11.67242486 -19 12 C-19.12375 12.639375 -19.2475 13.27875 -19.375 13.9375 C-19.58125 14.618125 -19.7875 15.29875 -20 16 C-20.66 16.33 -21.32 16.66 -22 17 C-20.72834838 10.64174189 -16.83297405 6.99356277 -12 3 C-7.83690221 0.24213558 -4.94205587 -1.65099654 0 0 Z " fill="#E6E5D7" transform="translate(128,53)"/>
<path d="M0 0 C1.65 0.33 3.3 0.66 5 1 C5.33 2.65 5.66 4.3 6 6 C4.68 6 3.36 6 2 6 C2 6.66 2 7.32 2 8 C3.32 8 4.64 8 6 8 C6 17.57 6 27.14 6 37 C4.68 37 3.36 37 2 37 C2 34.03 2 31.06 2 28 C2.33 28 2.66 28 3 28 C3 30.64 3 33.28 3 36 C3.66 36 4.32 36 5 36 C5 27.42 5 18.84 5 10 C3.02 9.34 1.04 8.68 -1 8 C-1.66 7.01 -2.32 6.02 -3 5 C-2.01 5 -1.02 5 0 5 C0 3.35 0 1.7 0 0 Z " fill="#F3DD88" transform="translate(121,83)"/>
<path d="M0 0 C2.875 -0.1875 2.875 -0.1875 6 0 C8 3 8 3 7.8125 5.375 C6.92236094 8.25083387 5.64861989 10.49123061 4 13 C3.01 12.67 2.02 12.34 1 12 C0.45533613 7.915021 0 4.1274515 0 0 Z " fill="#EEEEEE" transform="translate(63,167)"/>
<path d="M0 0 C6.07490908 2.47496296 9.50449306 7.08958883 12 13 C12 13.66 12 14.32 12 15 C11.01 14.67 10.02 14.34 9 14 C9 13.01 9 12.02 9 11 C8.01 11.33 7.02 11.66 6 12 C4.85157077 10.71064081 3.70633773 9.41843421 2.5625 8.125 C1.92441406 7.40570313 1.28632813 6.68640625 0.62890625 5.9453125 C-1 4 -1 4 -2 2 C-1.34 2 -0.68 2 0 2 C0 1.34 0 0.68 0 0 Z " fill="#F5EFD6" transform="translate(150,57)"/>
<path d="M0 0 C0.66 0 1.32 0 2 0 C3.38232443 1.62626404 4.71937515 3.2925002 6 5 C5.67 5.66 5.34 6.32 5 7 C4.34 6.34 3.68 5.68 3 5 C1.73374576 8.79876271 1.76701453 12.42421926 1.68359375 16.38671875 C1.66281265 17.20372757 1.64203156 18.02073639 1.62062073 18.86250305 C1.55526921 21.47075034 1.49630727 24.07909775 1.4375 26.6875 C1.39430108 28.45639054 1.35068635 30.22527097 1.30664062 31.99414062 C1.19960257 36.32932463 1.09829456 40.66460929 1 45 C0.67 45 0.34 45 0 45 C0 30.15 0 15.3 0 0 Z " fill="#848484" transform="translate(81,109)"/>
<path d="M0 0 C3.53647394 3.05422749 4.81058251 6.21652359 5.30078125 10.83203125 C5.32621358 17.30031962 4.71730003 22.11251659 2 28 C1 25 1 25 1.4375 22.9375 C2.25709835 18.6573753 2.27369904 14.34698474 2 10 C1.67 9.67 1.34 9.34 1 9 C0.76807135 7.48530552 0.58784762 5.96245438 0.4375 4.4375 C0.35371094 3.61121094 0.26992187 2.78492187 0.18359375 1.93359375 C0.12300781 1.29550781 0.06242188 0.65742187 0 0 Z " fill="#F1D14E" transform="translate(154,66)"/>
<path d="M0 0 C0.66 0 1.32 0 2 0 C2 3.96 2 7.92 2 12 C2.66 12 3.32 12 4 12 C4 14.97 4 17.94 4 21 C0.0146127 16.14822415 -0.12457909 12.45790867 -0.0625 6.25 C-0.05347656 5.07953125 -0.04445313 3.9090625 -0.03515625 2.703125 C-0.02355469 1.81109375 -0.01195313 0.9190625 0 0 Z " fill="#ECEDE9" transform="translate(104,74)"/>
<path d="M0 0 C0.33 0 0.66 0 1 0 C1.75 3.25 1.75 3.25 2 7 C0.0625 9.4375 0.0625 9.4375 -2 11 C-2.99 10.67 -3.98 10.34 -5 10 C-5.33 10.99 -5.66 11.98 -6 13 C-6.99 13.33 -7.98 13.66 -9 14 C-9 12 -9 12 -7.125 10.125 C-6.42375 9.42375 -5.7225 8.7225 -5 8 C-3.76487921 5.86690808 -3.76487921 5.86690808 -3 4 C-2.34 4 -1.68 4 -1 4 C-0.67 2.68 -0.34 1.36 0 0 Z " fill="#F8F1CC" transform="translate(157,90)"/>
<path d="M0 0 C0.94875 0.04125 1.8975 0.0825 2.875 0.125 C1.555 0.455 0.235 0.785 -1.125 1.125 C-1.125 1.785 -1.125 2.445 -1.125 3.125 C0.525 3.125 2.175 3.125 3.875 3.125 C3.545 3.785 3.215 4.445 2.875 5.125 C1.555 4.795 0.235 4.465 -1.125 4.125 C-0.795 6.105 -0.465 8.085 -0.125 10.125 C-2.6 9.135 -2.6 9.135 -5.125 8.125 C-5.25 5.25 -5.25 5.25 -5.125 2.125 C-3.125 0.125 -3.125 0.125 0 0 Z " fill="#FDF4C4" transform="translate(122.125,78.875)"/>
<path d="M0 0 C0.66 0 1.32 0 2 0 C2.33 0.66 2.66 1.32 3 2 C4.65 1.67 6.3 1.34 8 1 C7.67 2.65 7.34 4.3 7 6 C5.68 6.33 4.36 6.66 3 7 C2.67 6.34 2.34 5.68 2 5 C0.02 5.99 0.02 5.99 -2 7 C-1.125 2.25 -1.125 2.25 0 0 Z " fill="#FBE9A2" transform="translate(138,81)"/>
<path d="M0 0 C0.66 0 1.32 0 2 0 C0.85265046 2.81622161 -0.04810241 4.03727937 -2.5 5.9375 C-6.36652942 10.67399854 -6.41586273 16.04528719 -7 22 C-7.33 22 -7.66 22 -8 22 C-9.03349212 10.5167542 -9.03349212 10.5167542 -5.125 5.375 C-3.48515524 3.49749658 -1.76296123 1.76296123 0 0 Z " fill="#D0D0CF" transform="translate(258,109)"/>
<path d="M0 0 C0.66 0.33 1.32 0.66 2 1 C1.2884375 1.61875 1.2884375 1.61875 0.5625 2.25 C-1.16266518 4.182185 -1.56584875 5.48192275 -2 8 C-3.65 8.33 -5.3 8.66 -7 9 C-7.12375 9.639375 -7.2475 10.27875 -7.375 10.9375 C-7.58125 11.618125 -7.7875 12.29875 -8 13 C-8.99 13.495 -8.99 13.495 -10 14 C-8.72130795 7.60653976 -4.61738504 4.23081327 0 0 Z " fill="#DBDAD3" transform="translate(116,56)"/>
<path d="M0 0 C0.33 0.99 0.66 1.98 1 3 C1.99 3.33 2.98 3.66 4 4 C3.030625 3.979375 2.06125 3.95875 1.0625 3.9375 C-1.87465895 3.64381501 -1.87465895 3.64381501 -3 5 C-5.33297433 5.04092937 -7.66705225 5.04241723 -10 5 C-9.67 3.68 -9.34 2.36 -9 1 C-9 1.66 -9 2.32 -9 3 C-4.39257135 1.78955868 -4.39257135 1.78955868 0 0 Z " fill="#F7ECB7" transform="translate(140,85)"/>
<path d="M0 0 C3.09592835 3.5087188 4.74194623 6.49197399 6 11 C5.01 10.67 4.02 10.34 3 10 C3 9.01 3 8.02 3 7 C2.01 7.33 1.02 7.66 0 8 C-0.98120464 4.94736336 -0.98120464 3.05263664 0 0 Z " fill="#E5E2DA" transform="translate(156,61)"/>
<path d="M0 0 C0.33 0.99 0.66 1.98 1 3 C-0.31665664 4.67987227 -1.65263027 6.34466005 -3 8 C-4.25556887 11.17921787 -4.25556887 11.17921787 -5 14 C-5.33 14 -5.66 14 -6 14 C-5.80743982 4.82713348 -5.80743982 4.82713348 -2.4375 1.375 C-1.633125 0.92125 -0.82875 0.4675 0 0 Z " fill="#EFF0E7" transform="translate(154,99)"/>
<path d="M0 0 C0.99 0.33 1.98 0.66 3 1 C1.7260411 3.03833424 0.38938077 5.03852126 -1 7 C-1.66 7 -2.32 7 -3 7 C-3 7.66 -3 8.32 -3 9 C-3.66 9 -4.32 9 -5 9 C-4.37315423 6.07471973 -3.51695295 3.58774327 -2 1 C-1.34 0.67 -0.68 0.34 0 0 Z " fill="#FDF9E6" transform="translate(111,64)"/>
<path d="M0 0 C0.99 0.33 1.98 0.66 3 1 C2.67 1.33 2.34 1.66 2 2 C1.7367754 5.94836905 1.91002627 8.60379269 4 12 C3.01 12 2.02 12 1 12 C-1.44576827 8.33134759 -1.23607254 6.32799657 -1 2 C-0.67 1.34 -0.34 0.68 0 0 Z " fill="#F4CE42" transform="translate(116,79)"/>
<path d="M0 0 C0.66 0.33 1.32 0.66 2 1 C1.3503125 1.5878125 1.3503125 1.5878125 0.6875 2.1875 C-1.13175226 3.99843418 -1.13175226 3.99843418 -2.4375 6.5625 C-4.10114089 9.15777979 -5.16764125 9.92565703 -8 11 C-6.52670958 5.99081256 -3.72484762 3.48192278 0 0 Z " fill="#F4D054" transform="translate(119,59)"/>
<path d="M0 0 C5.61 0 11.22 0 17 0 C17.33 0.99 17.66 1.98 18 3 C12.06 2.34 6.12 1.68 0 1 C0 0.67 0 0.34 0 0 Z " fill="#858784" transform="translate(128,51)"/>
<path d="M0 0 C1.9375 0.8125 1.9375 0.8125 4 2 C4.33 2.99 4.66 3.98 5 5 C4.01 5.99 3.02 6.98 2 8 C-0.1519437 4.77208445 -0.20086443 3.71599191 0 0 Z " fill="#EFF0EA" transform="translate(103,105)"/>
<path d="M0 0 C0 1.65 0 3.3 0 5 C2.64 5 5.28 5 8 5 C8 5.33 8 5.66 8 6 C5.03 6 2.06 6 -1 6 C-1.33 5.34 -1.66 4.68 -2 4 C-2.99 3.34 -3.98 2.68 -5 2 C-2 0 -2 0 0 0 Z " fill="#999999" transform="translate(506,141)"/>
<path d="M0 0 C-4.5 3 -4.5 3 -9 6 C-8.8125 3.625 -8.8125 3.625 -8 1 C-4.72494404 -0.89608503 -3.64512471 -1.21504157 0 0 Z " fill="#FEF6D6" transform="translate(123,58)"/>
<path d="M0 0 C1.53760842 3.07521683 0.36599236 5.34675118 -0.4375 8.625 C-0.72496094 9.81351563 -1.01242188 11.00203125 -1.30859375 12.2265625 C-1.53675781 13.14179687 -1.76492187 14.05703125 -2 15 C-2.33 15 -2.66 15 -3 15 C-3.3152595 9.01006953 -2.68219822 5.36439644 0 0 Z " fill="#FDEFBF" transform="translate(147,104)"/>
<path d="M0 0 C2.475 0.495 2.475 0.495 5 1 C5 2.32 5 3.64 5 5 C3.68 4.67 2.36 4.34 1 4 C0.67 2.68 0.34 1.36 0 0 Z " fill="#EDCE53" transform="translate(121,83)"/>
<path d="M0 0 C1.65 0 3.3 0 5 0 C4.34 1.65 3.68 3.3 3 5 C2.34 5 1.68 5 1 5 C0.67 3.35 0.34 1.7 0 0 Z " fill="#7E7E7E" transform="translate(64,167)"/>
<path d="M0 0 C5.875 3.625 5.875 3.625 7 7 C5.02 6.34 3.04 5.68 1 5 C0.67 3.35 0.34 1.7 0 0 Z " fill="#FDF6D4" transform="translate(113,98)"/>
<path d="M0 0 C0.99 0 1.98 0 3 0 C2.67 1.32 2.34 2.64 2 4 C0.68 4.33 -0.64 4.66 -2 5 C-1.125 1.125 -1.125 1.125 0 0 Z " fill="#EECD4D" transform="translate(143,83)"/>
<path d="M0 0 C2.4375 0.6875 2.4375 0.6875 5 2 C5.8125 4.625 5.8125 4.625 6 7 C1.125 3.375 1.125 3.375 0 0 Z " fill="#E5E6E1" transform="translate(108,96)"/>
</svg>
